RobotoSerifMicro-SuperWideItalic.ufo
<glyph name="ampersand" format="2">
  <advance width="1054"/>
  <unicode hex="0026"/>
  <outline>
    <contour>
      <point x="944" y="0" type="line"/>
      <point x="972" y="92" type="line"/>
      <point x="946" y="94" type="line" smooth="yes"/>
      <point x="909" y="97"/>
      <point x="889" y="108"/>
      <point x="853" y="142" type="curve" smooth="yes"/>
      <point x="645" y="345"/>
      <point x="516" y="464"/>
      <point x="516" y="553" type="curve" smooth="yes"/>
      <point x="516" y="589"/>
      <point x="525" y="625"/>
      <point x="600" y="625" type="curve" smooth="yes"/>
      <point x="658" y="625"/>
      <point x="671" y="603"/>
      <point x="671" y="567" type="curve" smooth="yes"/>
      <point x="671" y="498"/>
      <point x="618" y="451"/>
      <point x="462" y="430" type="curve"/>
      <point x="470" y="388" type="line"/>
      <point x="736" y="417"/>
      <point x="889" y="471"/>
      <point x="889" y="584" type="curve" smooth="yes"/>
      <point x="889" y="660"/>
      <point x="827" y="718"/>
      <point x="608" y="718" type="curve" smooth="yes"/>
      <point x="375" y="718"/>
      <point x="277" y="643"/>
      <point x="277" y="514" type="curve" smooth="yes"/>
      <point x="277" y="368"/>
      <point x="463" y="199"/>
      <point x="676" y="0" type="curve"/>
    </contour>
    <contour>
      <point x="448" y="88" type="curve" smooth="yes"/>
      <point x="322" y="88"/>
      <point x="274" y="121"/>
      <point x="274" y="203" type="curve" smooth="yes"/>
      <point x="274" y="297"/>
      <point x="314" y="356"/>
      <point x="411" y="382" type="curve"/>
      <point x="395" y="412" type="line"/>
      <point x="148" y="397"/>
      <point x="9" y="349"/>
      <point x="9" y="181" type="curve" smooth="yes"/>
      <point x="9" y="53"/>
      <point x="118" y="-10"/>
      <point x="349" y="-10" type="curve" smooth="yes"/>
      <point x="668" y="-10"/>
      <point x="845" y="174"/>
      <point x="907" y="279" type="curve" smooth="yes"/>
      <point x="930" y="318"/>
      <point x="949" y="336"/>
      <point x="1010" y="336" type="curve" smooth="yes"/>
      <point x="1028" y="336" type="line"/>
      <point x="1053" y="426" type="line"/>
      <point x="776" y="426" type="line"/>
      <point x="750" y="336" type="line"/>
      <point x="759" y="336" type="line" smooth="yes"/>
      <point x="795" y="336"/>
      <point x="828" y="326"/>
      <point x="828" y="319" type="curve"/>
      <point x="793" y="202"/>
      <point x="623" y="88"/>
    </contour>
  </outline>
</glyph>
<glyph name="O" format="2">
  <advance width="1007"/>
  <unicode hex="004F"/>
  <anchor x="588" y="741" name="top"/>
  <anchor x="588" y="0" name="bottom"/>
  <outline>
    <contour>
      <point x="1015" y="393" type="curve" smooth="yes"/>
      <point x="1015.0" y="604.0"/>
      <point x="864.0" y="735"/>
      <point x="593" y="735" type="curve" smooth="yes"/>
      <point x="269" y="735"/>
      <point x="106" y="552"/>
      <point x="106" y="317" type="curve" smooth="yes"/>
      <point x="106" y="106.0"/>
      <point x="256.0" y="-25"/>
      <point x="529" y="-25" type="curve" smooth="yes"/>
      <point x="851" y="-25"/>
      <point x="1015" y="158"/>
    </contour>
    <contour>
      <point x="523" y="103" type="curve" smooth="yes"/>
      <point x="485" y="103"/>
      <point x="455" y="113"/>
      <point x="435" y="136" type="curve" smooth="yes"/>
      <point x="414" y="161"/>
      <point x="401" y="200"/>
      <point x="401" y="270" type="curve" smooth="yes"/>
      <point x="401.0" y="440.0"/>
      <point x="466" y="607"/>
      <point x="598" y="607" type="curve" smooth="yes"/>
      <point x="636.0" y="607.0"/>
      <point x="666" y="597"/>
      <point x="686" y="574" type="curve" smooth="yes"/>
      <point x="707" y="549"/>
      <point x="720" y="510"/>
      <point x="720" y="440" type="curve" smooth="yes"/>
      <point x="720.0" y="273.0"/>
      <point x="665" y="103"/>
    </contour>
  </outline>
</glyph>
<glyph name="asciicircum" format="2">
  <advance width="713"/>
  <unicode hex="005E"/>
  <outline>
    <contour>
      <point x="241" y="302" type="line"/>
      <point x="465" y="612" type="line"/>
      <point x="508" y="716" type="line"/>
      <point x="360" y="716" type="line"/>
      <point x="37" y="302" type="line"/>
    </contour>
    <contour>
      <point x="483" y="302" type="line"/>
      <point x="685" y="302" type="line"/>
      <point x="611" y="716" type="line"/>
      <point x="452" y="716" type="line"/>
      <point x="447" y="612" type="line"/>
    </contour>
  </outline>
</glyph>
<glyph name="p" format="2">
  <advance width="920"/>
  <unicode hex="0070"/>
  <outline>
    <contour>
      <point x="-115" y="-223" type="line"/>
      <point x="303" y="-223" type="line"/>
      <point x="327" y="-139" type="line"/>
      <point x="319" y="-139" type="line" smooth="yes"/>
      <point x="268" y="-139"/>
      <point x="235" y="-137"/>
      <point x="238" y="-131" type="curve" smooth="yes"/>
      <point x="408" y="428" type="line"/>
      <point x="395" y="416" type="line"/>
      <point x="407" y="572" type="line"/>
      <point x="122" y="572" type="line"/>
      <point x="94" y="476" type="line"/>
      <point x="103" y="474" type="line" smooth="yes"/>
      <point x="137" y="469"/>
      <point x="157" y="464"/>
      <point x="154" y="455" type="curve" smooth="yes"/>
      <point x="-9" y="-74" type="line"/>
      <point x="-25" y="-124"/>
      <point x="-48" y="-139"/>
      <point x="-87" y="-139" type="curve" smooth="yes"/>
      <point x="-91" y="-139" type="line"/>
    </contour>
    <contour>
      <point x="878" y="365" type="curve" smooth="yes"/>
      <point x="878" y="510"/>
      <point x="792" y="583"/>
      <point x="649" y="583" type="curve" smooth="yes"/>
      <point x="518" y="583"/>
      <point x="446" y="514"/>
      <point x="335" y="365" type="curve"/>
      <point x="330" y="322" type="line"/>
      <point x="437" y="418"/>
      <point x="483" y="453"/>
      <point x="543" y="453" type="curve" smooth="yes"/>
      <point x="589" y="453"/>
      <point x="615" y="431"/>
      <point x="615" y="385" type="curve" smooth="yes"/>
      <point x="615" y="291"/>
      <point x="559" y="118"/>
      <point x="451" y="118" type="curve" smooth="yes"/>
      <point x="377" y="118"/>
      <point x="343" y="173"/>
      <point x="307" y="242" type="curve"/>
      <point x="297" y="210" type="line"/>
      <point x="305" y="60"/>
      <point x="368" y="-12"/>
      <point x="524" y="-12" type="curve" smooth="yes"/>
      <point x="751" y="-12"/>
      <point x="878" y="182"/>
    </contour>
  </outline>
</glyph>
<glyph name="yen" format="2">
  <advance width="686"/>
  <unicode hex="00A5"/>
  <outline>
    <contour>
      <point x="21" y="240" type="line"/>
      <point x="-3" y="158" type="line"/>
      <point x="564" y="158" type="line"/>
      <point x="588" y="240" type="line"/>
    </contour>
    <contour>
      <point x="70" y="399" type="line"/>
      <point x="46" y="317" type="line"/>
      <point x="613" y="317" type="line"/>
      <point x="637" y="399" type="line"/>
    </contour>
    <contour>
      <point x="227" y="379" type="line"/>
      <point x="152" y="137" type="line" smooth="yes"/>
      <point x="142" y="108"/>
      <point x="109" y="101"/>
      <point x="72" y="101" type="curve" smooth="yes"/>
      <point x="47" y="101" type="line"/>
      <point x="17" y="0" type="line"/>
      <point x="446" y="0" type="line"/>
      <point x="476" y="101" type="line"/>
      <point x="449" y="101" type="line" smooth="yes"/>
      <point x="414" y="101"/>
      <point x="384" y="108"/>
      <point x="393" y="137" type="curve" smooth="yes"/>
      <point x="468" y="379" type="line"/>
    </contour>
    <contour>
      <point x="437" y="333" type="line"/>
      <point x="664" y="563" type="line" smooth="yes"/>
      <point x="695" y="594"/>
      <point x="715" y="610"/>
      <point x="749" y="610" type="curve" smooth="yes"/>
      <point x="754" y="610" type="line"/>
      <point x="784" y="710" type="line"/>
      <point x="559" y="710" type="line"/>
      <point x="529" y="610" type="line"/>
      <point x="534" y="610" type="line" smooth="yes"/>
      <point x="560" y="610"/>
      <point x="581" y="600"/>
      <point x="577" y="587" type="curve"/>
      <point x="371" y="380" type="line"/>
      <point x="431" y="383" type="line"/>
      <point x="373" y="599" type="line"/>
      <point x="374" y="606"/>
      <point x="396" y="610"/>
      <point x="421" y="610" type="curve" smooth="yes"/>
      <point x="432" y="610" type="line"/>
      <point x="462" y="710" type="line"/>
      <point x="118" y="710" type="line"/>
      <point x="88" y="610" type="line"/>
      <point x="94" y="610" type="line" smooth="yes"/>
      <point x="126" y="610"/>
      <point x="137" y="605"/>
      <point x="146" y="576" type="curve" smooth="yes"/>
      <point x="222" y="334" type="line"/>
    </contour>
  </outline>
</glyph>
<glyph name="degree" format="2">
  <advance width="686"/>
  <unicode hex="00B0"/>
  <outline>
    <contour>
      <point x="344" y="440" type="curve" smooth="yes"/>
      <point x="263" y="440"/>
      <point x="217" y="472"/>
      <point x="217" y="547" type="curve" smooth="yes"/>
      <point x="217" y="622"/>
      <point x="264" y="655"/>
      <point x="344" y="655" type="curve" smooth="yes"/>
      <point x="426" y="655"/>
      <point x="472" y="622"/>
      <point x="472" y="547" type="curve" smooth="yes"/>
      <point x="472" y="472"/>
      <point x="424" y="440"/>
    </contour>
    <contour>
      <point x="344" y="325" type="curve" smooth="yes"/>
      <point x="507" y="325"/>
      <point x="623" y="407"/>
      <point x="623" y="547" type="curve" smooth="yes"/>
      <point x="623" y="687"/>
      <point x="507" y="769"/>
      <point x="344" y="769" type="curve" smooth="yes"/>
      <point x="182" y="769"/>
      <point x="66" y="687"/>
      <point x="66" y="547" type="curve" smooth="yes"/>
      <point x="66" y="407"/>
      <point x="182" y="325"/>
    </contour>
  </outline>
</glyph>
<glyph name="divide" format="2">
  <advance width="686"/>
  <unicode hex="00F7"/>
  <outline>
    <contour>
      <point x="561" y="622" type="curve" smooth="yes"/>
      <point x="561" y="701"/>
      <point x="504" y="738"/>
      <point x="414" y="738" type="curve" smooth="yes"/>
      <point x="325" y="738"/>
      <point x="268" y="701"/>
      <point x="268" y="622" type="curve" smooth="yes"/>
      <point x="268" y="545"/>
      <point x="325" y="507"/>
      <point x="414" y="507" type="curve" smooth="yes"/>
      <point x="504" y="507"/>
      <point x="561" y="545"/>
    </contour>
    <contour>
      <point x="432" y="120" type="curve" smooth="yes"/>
      <point x="432" y="199"/>
      <point x="375" y="235"/>
      <point x="286" y="235" type="curve" smooth="yes"/>
      <point x="197" y="235"/>
      <point x="140" y="199"/>
      <point x="140" y="120" type="curve" smooth="yes"/>
      <point x="140" y="42"/>
      <point x="197" y="5"/>
      <point x="286" y="5" type="curve" smooth="yes"/>
      <point x="375" y="5"/>
      <point x="432" y="42"/>
    </contour>
    <component base="minus" yOffset="42"/>
  </outline>
</glyph>
<glyph name="dcroat" format="2">
  <advance width="924"/>
  <unicode hex="0111"/>
  <outline>
    <contour>
      <point x="272" y="-12" type="curve" smooth="yes"/>
      <point x="403" y="-12"/>
      <point x="475" y="57"/>
      <point x="585" y="206" type="curve"/>
      <point x="591" y="249" type="line"/>
      <point x="483" y="153"/>
      <point x="437" y="118"/>
      <point x="376" y="118" type="curve" smooth="yes"/>
      <point x="331" y="118"/>
      <point x="305" y="140"/>
      <point x="305" y="186" type="curve" smooth="yes"/>
      <point x="305" y="280"/>
      <point x="362" y="453"/>
      <point x="470" y="453" type="curve" smooth="yes"/>
      <point x="543" y="453"/>
      <point x="577" y="398"/>
      <point x="613" y="329" type="curve"/>
      <point x="623" y="360" type="line"/>
      <point x="616" y="511"/>
      <point x="552" y="583"/>
      <point x="397" y="583" type="curve" smooth="yes"/>
      <point x="181" y="583"/>
      <point x="42" y="389"/>
      <point x="42" y="206" type="curve" smooth="yes"/>
      <point x="42" y="61"/>
      <point x="127" y="-12"/>
    </contour>
    <contour>
      <point x="662" y="0" type="curve"/>
      <point x="717" y="0"/>
      <point x="773" y="0"/>
      <point x="829" y="0" type="curve"/>
      <point x="861" y="118" type="line"/>
      <point x="844" y="118"/>
      <point x="827" y="118"/>
      <point x="811" y="118" type="curve"/>
      <point x="787" y="118"/>
      <point x="775" y="125"/>
      <point x="775" y="143" type="curve" smooth="yes"/>
      <point x="775" y="157"/>
      <point x="785" y="182"/>
      <point x="809" y="252" type="curve" smooth="yes"/>
      <point x="970" y="780" type="line"/>
      <point x="707" y="780" type="line"/>
      <point x="513" y="142" type="line"/>
      <point x="527" y="138" type="line"/>
      <point x="527" y="115"/>
      <point x="527" y="108"/>
      <point x="527" y="97" type="curve" smooth="yes"/>
      <point x="527" y="35"/>
      <point x="576" y="0"/>
    </contour>
    <contour>
      <point x="460" y="718" type="line"/>
      <point x="435" y="632" type="line"/>
      <point x="988" y="632" type="line"/>
      <point x="1013" y="718" type="line"/>
    </contour>
  </outline>
</glyph>
<glyph name="hbar" format="2">
  <advance width="908"/>
  <unicode hex="0127"/>
  <outline>
    <contour>
      <point x="527" y="247" type="line" smooth="yes"/>
      <point x="498" y="161"/>
      <point x="487" y="127"/>
      <point x="487" y="96" type="curve" smooth="yes"/>
      <point x="487" y="34"/>
      <point x="538" y="0"/>
      <point x="624" y="0" type="curve" smooth="yes"/>
      <point x="687" y="0"/>
      <point x="750" y="0"/>
      <point x="813" y="0" type="curve"/>
      <point x="844" y="118" type="line"/>
      <point x="828" y="118"/>
      <point x="811" y="118"/>
      <point x="795" y="118" type="curve"/>
      <point x="771" y="118"/>
      <point x="759" y="125"/>
      <point x="759" y="143" type="curve" smooth="yes"/>
      <point x="759" y="157"/>
      <point x="769" y="182"/>
      <point x="793" y="252" type="curve" smooth="yes"/>
      <point x="838" y="397" type="line" smooth="yes"/>
      <point x="846" y="425"/>
      <point x="854" y="458"/>
      <point x="854" y="491" type="curve" smooth="yes"/>
      <point x="854" y="548"/>
      <point x="805" y="585"/>
      <point x="706" y="585" type="curve" smooth="yes"/>
      <point x="556" y="585"/>
      <point x="460" y="511"/>
      <point x="354" y="392" type="curve"/>
      <point x="343" y="305" type="line"/>
      <point x="427" y="391"/>
      <point x="485" y="449"/>
      <point x="545" y="449" type="curve" smooth="yes"/>
      <point x="571" y="449"/>
      <point x="581" y="440"/>
      <point x="581" y="427" type="curve" smooth="yes"/>
      <point x="581" y="413"/>
      <point x="575" y="396"/>
      <point x="568" y="375" type="curve" smooth="yes"/>
    </contour>
    <contour>
      <point x="15" y="0" type="line"/>
      <point x="279" y="0" type="line"/>
      <point x="517" y="780" type="line"/>
      <point x="253" y="780" type="line"/>
    </contour>
    <contour>
      <point x="699" y="632" type="line"/>
      <point x="724" y="718" type="line"/>
      <point x="172" y="718" type="line"/>
      <point x="147" y="632" type="line"/>
    </contour>
  </outline>
</glyph>
<glyph name="Uhorn" format="2">
  <advance width="1135"/>
  <unicode hex="01AF"/>
  <anchor x="594" y="663" name="top"/>
  <outline>
    <contour>
      <point x="426" y="-25" type="curve" smooth="yes"/>
      <point x="619" y="-25"/>
      <point x="742" y="51"/>
      <point x="799" y="234" type="curve" smooth="yes"/>
      <point x="903" y="576" type="line" smooth="yes"/>
      <point x="911" y="605"/>
      <point x="937" y="609"/>
      <point x="983" y="614" type="curve" smooth="yes"/>
      <point x="1115" y="631"/>
      <point x="1229" y="637"/>
      <point x="1305" y="888" type="curve"/>
      <point x="1106" y="888" type="line"/>
      <point x="1045" y="726"/>
      <point x="1037" y="710"/>
      <point x="870" y="710" type="curve" smooth="yes"/>
      <point x="742" y="710" type="line"/>
      <point x="711" y="610" type="line"/>
      <point x="728" y="610" type="line" smooth="yes"/>
      <point x="763" y="610"/>
      <point x="798" y="605"/>
      <point x="794" y="593" type="curve" smooth="yes"/>
      <point x="691" y="257" type="line" smooth="yes"/>
      <point x="653" y="140"/>
      <point x="596" y="91"/>
      <point x="485" y="91" type="curve" smooth="yes"/>
      <point x="387" y="91"/>
      <point x="349" y="121"/>
      <point x="349" y="172" type="curve" smooth="yes"/>
      <point x="349" y="197"/>
      <point x="354" y="224"/>
      <point x="372" y="280" type="curve" smooth="yes"/>
      <point x="468" y="600" type="line" smooth="yes"/>
      <point x="470" y="607"/>
      <point x="506" y="610"/>
      <point x="532" y="610" type="curve" smooth="yes"/>
      <point x="548" y="610" type="line"/>
      <point x="578" y="710" type="line"/>
      <point x="145" y="710" type="line"/>
      <point x="115" y="610" type="line"/>
      <point x="128" y="610" type="line" smooth="yes"/>
      <point x="164" y="610"/>
      <point x="188" y="603"/>
      <point x="180" y="574" type="curve" smooth="yes"/>
      <point x="103" y="318" type="line" smooth="yes"/>
      <point x="85" y="264"/>
      <point x="78" y="223"/>
      <point x="78" y="189" type="curve" smooth="yes"/>
      <point x="78" y="45"/>
      <point x="215" y="-25"/>
    </contour>
  </outline>
</glyph>
<glyph name="ogonek" format="2">
  <advance width="735"/>
  <unicode hex="02DB"/>
  <anchor x="420" y="9" name="_right"/>
  <outline>
    <contour>
      <point x="552" y="47" type="line"/>
      <point x="187" y="-30"/>
      <point x="127" y="-67"/>
      <point x="127" y="-148" type="curve" smooth="yes"/>
      <point x="127" y="-222"/>
      <point x="202" y="-252"/>
      <point x="340" y="-252" type="curve" smooth="yes"/>
      <point x="442" y="-252"/>
      <point x="508" y="-228"/>
      <point x="558" y="-189" type="curve"/>
      <point x="514" y="-131" type="line"/>
      <point x="489" y="-147"/>
      <point x="452" y="-170"/>
      <point x="408" y="-170" type="curve" smooth="yes"/>
      <point x="370" y="-170"/>
      <point x="350" y="-158"/>
      <point x="350" y="-125" type="curve" smooth="yes"/>
      <point x="350" y="-90"/>
      <point x="366" y="-60"/>
      <point x="567" y="7" type="curve"/>
    </contour>
  </outline>
</glyph>
<glyph name="manat" format="2">
  <advance width="686"/>
  <unicode hex="20BC"/>
  <outline>
    <contour>
      <point x="440" y="771" type="line"/>
      <point x="242" y="124" type="line"/>
      <point x="330" y="124" type="line"/>
      <point x="528" y="771" type="line"/>
    </contour>
    <contour>
      <point x="428" y="621" type="curve" smooth="yes"/>
      <point x="193" y="621"/>
      <point x="91" y="497"/>
      <point x="-80" y="0" type="curve"/>
      <point x="142" y="0" type="line"/>
      <point x="266" y="450"/>
      <point x="221" y="522"/>
      <point x="416" y="522" type="curve" smooth="yes"/>
      <point x="595" y="522"/>
      <point x="505" y="451"/>
      <point x="359" y="0" type="curve"/>
      <point x="580" y="0" type="line"/>
      <point x="709" y="497"/>
      <point x="665" y="621"/>
    </contour>
  </outline>
</glyph>
<glyph name="infinity" format="2">
  <advance width="995"/>
  <unicode hex="221E"/>
  <outline>
    <contour>
      <point x="410" y="334" type="curve" smooth="yes"/>
      <point x="369" y="432"/>
      <point x="350" y="456"/>
      <point x="283" y="456" type="curve" smooth="yes"/>
      <point x="204" y="456"/>
      <point x="170" y="398"/>
      <point x="170" y="342" type="curve" smooth="yes"/>
      <point x="170" y="283"/>
      <point x="207" y="254"/>
      <point x="276" y="254" type="curve" smooth="yes"/>
      <point x="351" y="254"/>
      <point x="397" y="310"/>
      <point x="434" y="351" type="curve"/>
      <point x="495" y="343" type="line"/>
      <point x="438" y="238"/>
      <point x="360" y="122"/>
      <point x="241" y="122" type="curve" smooth="yes"/>
      <point x="133" y="122"/>
      <point x="57" y="200"/>
      <point x="57" y="328" type="curve" smooth="yes"/>
      <point x="57" y="453"/>
      <point x="157" y="589"/>
      <point x="342" y="589" type="curve" smooth="yes"/>
      <point x="502" y="589"/>
      <point x="561" y="478"/>
      <point x="605" y="376" type="curve" smooth="yes"/>
      <point x="646" y="278"/>
      <point x="664" y="254"/>
      <point x="732" y="254" type="curve" smooth="yes"/>
      <point x="811" y="254"/>
      <point x="845" y="312"/>
      <point x="845" y="369" type="curve" smooth="yes"/>
      <point x="845" y="428"/>
      <point x="808" y="456"/>
      <point x="739" y="456" type="curve" smooth="yes"/>
      <point x="664" y="456"/>
      <point x="617" y="400"/>
      <point x="581" y="360" type="curve"/>
      <point x="519" y="367" type="line"/>
      <point x="577" y="472"/>
      <point x="654" y="589"/>
      <point x="774" y="589" type="curve" smooth="yes"/>
      <point x="881" y="589"/>
      <point x="958" y="510"/>
      <point x="958" y="382" type="curve" smooth="yes"/>
      <point x="958" y="258"/>
      <point x="857" y="122"/>
      <point x="673" y="122" type="curve" smooth="yes"/>
      <point x="513" y="122"/>
      <point x="454" y="232"/>
    </contour>
  </outline>
</glyph>
<glyph name="acute.pl" format="2">
  <advance width="613"/>
  <anchor x="278" y="489" name="_top"/>
  <outline>
    <contour>
      <point x="224" y="792" type="curve" smooth="yes"/>
      <point x="196" y="675" type="line"/>
      <point x="196" y="630" type="line"/>
      <point x="260" y="630" type="line"/>
      <point x="366" y="684" type="line" smooth="yes"/>
      <point x="426" y="718"/>
      <point x="462" y="750"/>
      <point x="462" y="803" type="curve" smooth="yes"/>
      <point x="462" y="855"/>
      <point x="417" y="893"/>
      <point x="347" y="893" type="curve" smooth="yes"/>
      <point x="273" y="893"/>
      <point x="237" y="850"/>
    </contour>
  </outline>
</glyph>
<glyph name="breve_hook" format="2">
  <advance width="613"/>
  <anchor x="311" y="525" name="_top"/>
  <outline>
    <contour>
      <point x="153" y="1003" type="line"/>
      <point x="185" y="1102"/>
      <point x="280" y="1134"/>
      <point x="401" y="1134" type="curve" smooth="yes"/>
      <point x="538" y="1134"/>
      <point x="623" y="1104"/>
      <point x="623" y="1027" type="curve" smooth="yes"/>
      <point x="623" y="936"/>
      <point x="532" y="906"/>
      <point x="393" y="901" type="curve"/>
      <point x="443" y="948" type="line"/>
      <point x="415" y="854" type="line"/>
      <point x="270" y="854" type="line"/>
      <point x="300" y="952" type="line"/>
      <point x="433" y="954"/>
      <point x="454" y="980"/>
      <point x="454" y="1019" type="curve" smooth="yes"/>
      <point x="454" y="1046"/>
      <point x="434" y="1054"/>
      <point x="392" y="1054" type="curve" smooth="yes"/>
      <point x="346" y="1054"/>
      <point x="326" y="1042"/>
      <point x="313" y="1003" type="curve"/>
    </contour>
    <contour>
      <point x="97" y="843" type="curve"/>
      <point x="224" y="843" type="line"/>
      <point x="218" y="785"/>
      <point x="231" y="768"/>
      <point x="325" y="768" type="curve" smooth="yes"/>
      <point x="430" y="768"/>
      <point x="451" y="778"/>
      <point x="470" y="843" type="curve"/>
      <point x="597" y="843" type="line"/>
      <point x="580" y="664"/>
      <point x="478" y="621"/>
      <point x="322" y="621" type="curve" smooth="yes"/>
      <point x="160" y="621"/>
      <point x="86" y="671"/>
      <point x="86" y="767" type="curve" smooth="yes"/>
      <point x="86" y="788"/>
      <point x="89" y="817"/>
    </contour>
  </outline>
</glyph>
<glyph name="breve_hook.uc" format="2">
  <advance width="614"/>
  <anchor x="308" y="724" name="_top"/>
  <outline>
    <contour>
      <point x="137" y="1156" type="line"/>
      <point x="169" y="1256"/>
      <point x="271" y="1287"/>
      <point x="395" y="1287" type="curve" smooth="yes"/>
      <point x="531" y="1287"/>
      <point x="617" y="1258"/>
      <point x="617" y="1181" type="curve" smooth="yes"/>
      <point x="617" y="1088"/>
      <point x="527" y="1059"/>
      <point x="383" y="1055" type="curve"/>
      <point x="430" y="1100" type="line"/>
      <point x="403" y="1015" type="line"/>
      <point x="258" y="1015" type="line"/>
      <point x="286" y="1106" type="line"/>
      <point x="428" y="1108"/>
      <point x="444" y="1133"/>
      <point x="444" y="1172" type="curve" smooth="yes"/>
      <point x="444" y="1197"/>
      <point x="428" y="1208"/>
      <point x="382" y="1208" type="curve" smooth="yes"/>
      <point x="337" y="1208"/>
      <point x="314" y="1196"/>
      <point x="300" y="1156" type="curve"/>
    </contour>
    <contour>
      <point x="313" y="781" type="curve" smooth="yes"/>
      <point x="138" y="781"/>
      <point x="60" y="829"/>
      <point x="60" y="926" type="curve" smooth="yes"/>
      <point x="60" y="947"/>
      <point x="64" y="975"/>
      <point x="71" y="1002" type="curve"/>
      <point x="203" y="1002" type="line"/>
      <point x="196" y="945"/>
      <point x="210" y="927"/>
      <point x="317" y="927" type="curve" smooth="yes"/>
      <point x="432" y="927"/>
      <point x="454" y="937"/>
      <point x="473" y="1002" type="curve"/>
      <point x="605" y="1002" type="line"/>
      <point x="598" y="827"/>
      <point x="482" y="781"/>
    </contour>
  </outline>
</glyph>
<glyph name="circumflex.uc" format="2">
  <advance width="613"/>
  <anchor x="296" y="694" name="_top"/>
  <outline>
    <contour>
      <point x="426" y="998" type="line"/>
      <point x="559" y="824" type="line"/>
      <point x="544" y="771" type="line"/>
      <point x="460" y="771" type="line"/>
      <point x="270" y="862" type="line"/>
      <point x="334" y="861" type="line"/>
      <point x="97" y="771" type="line"/>
      <point x="-3" y="771" type="line"/>
      <point x="13" y="824" type="line"/>
      <point x="247" y="998" type="line"/>
    </contour>
  </outline>
</glyph>
<glyph name="circumflex_tilde.uc" format="2">
  <advance width="613"/>
  <anchor x="302" y="694" name="_top"/>
  <outline>
    <contour>
      <point x="443" y="1025" type="curve" smooth="yes"/>
      <point x="537" y="1025"/>
      <point x="591" y="1068"/>
      <point x="640" y="1220" type="curve"/>
      <point x="535" y="1244" type="line"/>
      <point x="510" y="1182"/>
      <point x="496" y="1162"/>
      <point x="461" y="1162" type="curve" smooth="yes"/>
      <point x="405" y="1162"/>
      <point x="400" y="1234"/>
      <point x="279" y="1234" type="curve" smooth="yes"/>
      <point x="179" y="1234"/>
      <point x="131" y="1191"/>
      <point x="72" y="1048" type="curve"/>
      <point x="177" y="1022" type="line"/>
      <point x="203" y="1079"/>
      <point x="214" y="1098"/>
      <point x="248" y="1098" type="curve" smooth="yes"/>
      <point x="306" y="1098"/>
      <point x="312" y="1025"/>
    </contour>
    <contour>
      <point x="426" y="978" type="line"/>
      <point x="559" y="824" type="line"/>
      <point x="544" y="771" type="line"/>
      <point x="460" y="771" type="line"/>
      <point x="270" y="849" type="line"/>
      <point x="331" y="850" type="line"/>
      <point x="97" y="771" type="line"/>
      <point x="-2" y="771" type="line"/>
      <point x="13" y="824" type="line"/>
      <point x="247" y="978" type="line"/>
    </contour>
  </outline>
</glyph>
<glyph name="five.midprop" format="2">
  <advance width="722"/>
  <outline>
    <contour>
      <point x="-48" y="113" type="curve"/>
      <point x="87" y="151" type="line"/>
      <point x="113" y="95"/>
      <point x="142" y="50"/>
      <point x="250" y="50" type="curve" smooth="yes"/>
      <point x="375" y="50"/>
      <point x="406" y="165"/>
      <point x="406" y="243" type="curve" smooth="yes"/>
      <point x="406" y="301"/>
      <point x="377" y="325"/>
      <point x="305" y="325" type="curve" smooth="yes"/>
      <point x="243" y="325"/>
      <point x="206" y="302"/>
      <point x="167" y="256" type="curve"/>
      <point x="62" y="256" type="line"/>
      <point x="191" y="683" type="line"/>
      <point x="710" y="683" type="line"/>
      <point x="646" y="520" type="line"/>
      <point x="239" y="520" type="line"/>
      <point x="306" y="663" type="line"/>
      <point x="205" y="334" type="line"/>
      <point x="175" y="313" type="line"/>
      <point x="220" y="379"/>
      <point x="286" y="429"/>
      <point x="406" y="429" type="curve" smooth="yes"/>
      <point x="554" y="429"/>
      <point x="655" y="369"/>
      <point x="655" y="235" type="curve" smooth="yes"/>
      <point x="655" y="67"/>
      <point x="522" y="-55"/>
      <point x="265" y="-55" type="curve" smooth="yes"/>
      <point x="74" y="-55"/>
      <point x="-10" y="7"/>
    </contour>
  </outline>
</glyph>
<glyph name="florin.proportional" format="2">
  <advance width="689"/>
  <outline>
    <contour>
      <point x="254" y="-35" type="curve" smooth="yes"/>
      <point x="538" y="631" type="line" smooth="yes"/>
      <point x="559" y="678"/>
      <point x="574" y="698"/>
      <point x="643" y="698" type="curve" smooth="yes"/>
      <point x="691" y="698"/>
      <point x="727" y="689"/>
      <point x="753" y="682" type="curve"/>
      <point x="782" y="763" type="line"/>
      <point x="754" y="774"/>
      <point x="696" y="790"/>
      <point x="603" y="790" type="curve" smooth="yes"/>
      <point x="434" y="790"/>
      <point x="357" y="755"/>
      <point x="320" y="665" type="curve" smooth="yes"/>
      <point x="2" y="-93" type="line" smooth="yes"/>
      <point x="-19" y="-142"/>
      <point x="-40" y="-158"/>
      <point x="-87" y="-158" type="curve" smooth="yes"/>
      <point x="-115" y="-158"/>
      <point x="-137" y="-154"/>
      <point x="-163" y="-145" type="curve"/>
      <point x="-193" y="-230" type="line"/>
      <point x="-169" y="-238"/>
      <point x="-125" y="-250"/>
      <point x="-53" y="-250" type="curve" smooth="yes"/>
      <point x="102" y="-250"/>
      <point x="187" y="-202"/>
    </contour>
    <contour>
      <point x="164" y="565" type="line"/>
      <point x="127" y="481" type="line"/>
      <point x="638" y="481" type="line"/>
      <point x="675" y="565" type="line"/>
    </contour>
  </outline>
</glyph>
<glyph name="four.midprop" format="2">
  <advance width="796"/>
  <outline>
    <contour>
      <point x="-23" y="114" type="line"/>
      <point x="717" y="114" type="line"/>
      <point x="760" y="267" type="line"/>
      <point x="104" y="267" type="line"/>
      <point x="76" y="191" type="line"/>
      <point x="547" y="615" type="line"/>
      <point x="570" y="670" type="line"/>
      <point x="461" y="670" type="line"/>
      <point x="28" y="289" type="line"/>
    </contour>
    <contour>
      <point x="544" y="-47" type="line"/>
      <point x="763" y="670" type="line"/>
      <point x="535" y="670" type="line"/>
      <point x="522" y="644" type="line"/>
      <point x="310" y="-47" type="line"/>
    </contour>
  </outline>
</glyph>
<glyph name="naira.proportional" format="2">
  <advance width="1022"/>
  <outline>
    <contour>
      <point x="73" y="417" type="line"/>
      <point x="293" y="417" type="line"/>
      <point x="325" y="521" type="line"/>
      <point x="103" y="521" type="line"/>
    </contour>
    <contour>
      <point x="584" y="508" type="line"/>
      <point x="767" y="430" type="line"/>
      <point x="780" y="417" type="line"/>
      <point x="997" y="417" type="line"/>
      <point x="1027" y="521" type="line"/>
      <point x="591" y="521" type="line"/>
    </contour>
    <contour>
      <point x="700" y="184" type="line"/>
      <point x="926" y="184" type="line"/>
      <point x="956" y="288" type="line"/>
      <point x="733" y="288" type="line"/>
    </contour>
    <contour>
      <point x="2" y="184" type="line"/>
      <point x="459" y="184" type="line"/>
      <point x="464" y="198" type="line"/>
      <point x="255" y="275" type="line"/>
      <point x="259" y="288" type="line"/>
      <point x="32" y="288" type="line"/>
    </contour>
    <contour>
      <point x="24" y="0" type="line"/>
      <point x="265" y="0" type="line"/>
      <point x="292" y="95" type="line"/>
      <point x="283" y="95" type="line" smooth="yes"/>
      <point x="251" y="95"/>
      <point x="228" y="101"/>
      <point x="230" y="108" type="curve" smooth="yes"/>
      <point x="411" y="696" type="line"/>
      <point x="374" y="698" type="line"/>
      <point x="448" y="0" type="line"/>
      <point x="716" y="0" type="line"/>
      <point x="892" y="574" type="line" smooth="yes"/>
      <point x="902" y="603"/>
      <point x="930" y="615"/>
      <point x="970" y="615" type="curve" smooth="yes"/>
      <point x="978" y="615" type="line"/>
      <point x="1005" y="710" type="line"/>
      <point x="769" y="710" type="line"/>
      <point x="742" y="615" type="line"/>
      <point x="750" y="615" type="line" smooth="yes"/>
      <point x="785" y="615"/>
      <point x="802" y="609"/>
      <point x="800" y="602" type="curve" smooth="yes"/>
      <point x="625" y="35" type="line"/>
      <point x="662" y="18" type="line"/>
      <point x="601" y="710" type="line"/>
      <point x="243" y="710" type="line"/>
      <point x="215" y="615" type="line"/>
      <point x="223" y="615" type="line" smooth="yes"/>
      <point x="263" y="615"/>
      <point x="285" y="608"/>
      <point x="275" y="579" type="curve" smooth="yes"/>
      <point x="138" y="136" type="line" smooth="yes"/>
      <point x="128" y="107"/>
      <point x="101" y="95"/>
      <point x="60" y="95" type="curve" smooth="yes"/>
      <point x="52" y="95" type="line"/>
    </contour>
  </outline>
</glyph>
<glyph name="one.midprop" format="2">
  <advance width="617"/>
  <outline>
    <contour>
      <point x="403" y="132" type="curve" smooth="yes"/>
      <point x="573" y="683" type="line"/>
      <point x="356" y="683" type="line"/>
      <point x="299" y="638"/>
      <point x="233" y="610"/>
      <point x="112" y="609" type="curve"/>
      <point x="72" y="469" type="line"/>
      <point x="173" y="468"/>
      <point x="251" y="490"/>
      <point x="316" y="608" type="curve"/>
      <point x="291" y="602" type="line"/>
      <point x="146" y="132" type="line" smooth="yes"/>
      <point x="134" y="92"/>
      <point x="78" y="85"/>
      <point x="28" y="85" type="curve" smooth="yes"/>
      <point x="-17" y="85" type="line"/>
      <point x="-42" y="0" type="line"/>
      <point x="492" y="0" type="line"/>
      <point x="517" y="85" type="line"/>
      <point x="491" y="85" type="line" smooth="yes"/>
      <point x="440" y="85"/>
      <point x="391" y="92"/>
    </contour>
  </outline>
</glyph>
<glyph name="one.oldprop" format="2">
  <advance width="622"/>
  <outline>
    <contour>
      <point x="418" y="131" type="curve" smooth="yes"/>
      <point x="574" y="645" type="line"/>
      <point x="357" y="645" type="line"/>
      <point x="301" y="600"/>
      <point x="235" y="572"/>
      <point x="113" y="571" type="curve"/>
      <point x="73" y="431" type="line"/>
      <point x="175" y="430"/>
      <point x="256" y="452"/>
      <point x="322" y="570" type="curve"/>
      <point x="296" y="564" type="line"/>
      <point x="164" y="131" type="line" smooth="yes"/>
      <point x="152" y="91"/>
      <point x="96" y="84"/>
      <point x="45" y="84" type="curve" smooth="yes"/>
      <point x="-2" y="84" type="line"/>
      <point x="-28" y="0" type="line"/>
      <point x="506" y="0" type="line"/>
      <point x="531" y="84" type="line"/>
      <point x="506" y="84" type="line" smooth="yes"/>
      <point x="455" y="84"/>
      <point x="406" y="91"/>
    </contour>
  </outline>
</glyph>
<glyph name="ringhalfleft" format="2">
  <advance width="613"/>
  <anchor x="289" y="566" name="_top"/>
  <outline>
    <contour>
      <point x="310" y="610" type="curve"/>
      <point x="315" y="693" type="line"/>
      <point x="257" y="693"/>
      <point x="231" y="716"/>
      <point x="231" y="750" type="curve" smooth="yes"/>
      <point x="231" y="786"/>
      <point x="253" y="827"/>
      <point x="319" y="827" type="curve"/>
      <point x="323" y="910" type="line"/>
      <point x="187" y="910"/>
      <point x="100" y="842"/>
      <point x="100" y="751" type="curve" smooth="yes"/>
      <point x="100" y="666"/>
      <point x="177" y="610"/>
    </contour>
  </outline>
</glyph>
<glyph name="ruble.proportional" format="2">
  <advance width="870"/>
  <outline>
    <contour>
      <point x="78" y="415" type="line"/>
      <point x="498" y="415" type="line" smooth="yes"/>
      <point x="604" y="415"/>
      <point x="647" y="469"/>
      <point x="647" y="547" type="curve" smooth="yes"/>
      <point x="647" y="596"/>
      <point x="607" y="619"/>
      <point x="526" y="619" type="curve" smooth="yes"/>
      <point x="483" y="619" type="line"/>
      <point x="323" y="105" type="line" smooth="yes"/>
      <point x="321" y="98"/>
      <point x="337" y="95"/>
      <point x="379" y="95" type="curve" smooth="yes"/>
      <point x="389" y="95" type="line"/>
      <point x="361" y="0" type="line"/>
      <point x="-12" y="0" type="line"/>
      <point x="15" y="95" type="line"/>
      <point x="24" y="95" type="line" smooth="yes"/>
      <point x="63" y="95"/>
      <point x="96" y="102"/>
      <point x="104" y="131" type="curve" smooth="yes"/>
      <point x="245" y="579" type="line" smooth="yes"/>
      <point x="253" y="608"/>
      <point x="226" y="615"/>
      <point x="187" y="615" type="curve" smooth="yes"/>
      <point x="178" y="615" type="line"/>
      <point x="205" y="710" type="line"/>
      <point x="572" y="710" type="line" smooth="yes"/>
      <point x="771" y="710"/>
      <point x="871" y="648"/>
      <point x="871" y="541" type="curve" smooth="yes"/>
      <point x="871" y="411"/>
      <point x="758" y="330"/>
      <point x="520" y="330" type="curve" smooth="yes"/>
      <point x="53" y="330" type="line"/>
    </contour>
    <contour>
      <point x="529" y="167" type="line"/>
      <point x="2" y="167" type="line"/>
      <point x="25" y="245" type="line"/>
      <point x="552" y="245" type="line"/>
    </contour>
  </outline>
</glyph>
<glyph name="six.oldtab" format="2">
  <advance width="686"/>
  <outline>
    <contour>
      <point x="306" y="-10" type="curve" smooth="yes"/>
      <point x="562" y="-10"/>
      <point x="648" y="165"/>
      <point x="648" y="334" type="curve" smooth="yes"/>
      <point x="648" y="421"/>
      <point x="584" y="474"/>
      <point x="477" y="474" type="curve" smooth="yes"/>
      <point x="365" y="474"/>
      <point x="297" y="406"/>
      <point x="234" y="331" type="curve"/>
      <point x="240" y="311" type="line"/>
      <point x="293" y="360"/>
      <point x="324" y="381"/>
      <point x="362" y="381" type="curve" smooth="yes"/>
      <point x="389" y="381"/>
      <point x="418" y="371"/>
      <point x="418" y="341" type="curve" smooth="yes"/>
      <point x="418" y="319"/>
      <point x="410" y="288"/>
      <point x="397" y="240" type="curve" smooth="yes"/>
      <point x="363" y="119"/>
      <point x="342" y="83"/>
      <point x="294" y="83" type="curve" smooth="yes"/>
      <point x="252" y="83"/>
      <point x="234" y="95"/>
      <point x="234" y="125" type="curve" smooth="yes"/>
      <point x="234" y="162"/>
      <point x="245" y="213"/>
      <point x="271" y="308" type="curve" smooth="yes"/>
      <point x="345" y="575"/>
      <point x="454" y="632"/>
      <point x="697" y="648" type="curve"/>
      <point x="711" y="751" type="line"/>
      <point x="170" y="745"/>
      <point x="21" y="431"/>
      <point x="21" y="219" type="curve" smooth="yes"/>
      <point x="21" y="69"/>
      <point x="117" y="-10"/>
    </contour>
  </outline>
</glyph>
